<svg xmlns="http://www.w3.org/2000/svg" width="22" height="21" viewBox="0 0 22 21" fill="none">
    <path d="M3.90697 19.4442H22V21H3.90697V19.4442ZM19.939 6.61706L13.7008 0.456281C13.5547 0.311633 13.3812 0.196882 13.1902 0.11859C12.9992 0.040298 12.7944 0 12.5877 0C12.3809 0 12.1762 0.040298 11.9852 0.11859C11.7942 0.196882 11.6207 0.311633 11.4746 0.456281L0.46143 11.3466C0.315149 11.491 0.199104 11.6626 0.119928 11.8515C0.0407528 12.0404 0 12.2428 0 12.4472C0 12.6517 0.0407528 12.8541 0.119928 13.043C0.199104 13.2319 0.315149 13.4035 0.46143 13.5479L4.00924 17.1106H11.5532L19.939 8.81845C20.0852 8.67397 20.2013 8.50238 20.2805 8.31352C20.3596 8.12465 20.4004 7.92221 20.4004 7.71776C20.4004 7.51331 20.3596 7.31086 20.2805 7.122C20.2013 6.93313 20.0852 6.76155 19.939 6.61706ZM10.9003 15.5549H4.69363L1.54701 12.4434L6.51079 7.53496L12.749 13.6957L10.9003 15.5549ZM13.8581 12.63L7.62784 6.46149L12.5602 1.55309L18.8534 7.72165L13.8581 12.63Z" fill="black"/>
</svg>