<svg width="35" height="25" viewBox="0 0 35 25" fill="none" xmlns="http://www.w3.org/2000/svg">
<path d="M22.4222 7.60868C23.1793 7.60868 23.9193 7.38556 24.5488 6.96753C25.1783 6.5495 25.6689 5.95535 25.9586 5.2602C26.2483 4.56504 26.3241 3.80012 26.1764 3.06215C26.0287 2.32418 25.6642 1.64631 25.1288 1.11427C24.5935 0.58222 23.9115 0.219892 23.169 0.073101C22.4264 -0.0736902 21.6568 0.00164836 20.9574 0.28959C20.2579 0.577531 19.6601 1.06514 19.2395 1.69076C18.8189 2.31638 18.5944 3.05191 18.5944 3.80434C18.598 4.81221 19.0025 5.77778 19.7195 6.49046C20.4366 7.20313 21.4081 7.6051 22.4222 7.60868ZM22.4222 2.17391C22.7467 2.17391 23.0638 2.26953 23.3336 2.44869C23.6034 2.62784 23.8136 2.88248 23.9378 3.1804C24.062 3.47832 24.0945 3.80615 24.0312 4.12242C23.9679 4.43869 23.8116 4.72921 23.5822 4.95723C23.3528 5.18525 23.0605 5.34053 22.7422 5.40344C22.424 5.46635 22.0942 5.43406 21.7944 5.31066C21.4947 5.18726 21.2384 4.97828 21.0582 4.71016C20.8779 4.44203 20.7817 4.12681 20.7817 3.80434C20.7817 3.37192 20.9546 2.95722 21.2622 2.65145C21.5699 2.34569 21.9871 2.17391 22.4222 2.17391ZM34.8488 23.3559L27.0429 10.2581C26.8472 9.93456 26.5707 9.66681 26.2401 9.48093C25.9095 9.29505 25.5361 9.19736 25.1563 9.19736C24.7765 9.19736 24.4031 9.29505 24.0726 9.48093C23.742 9.66681 23.4654 9.93456 23.2698 10.2581L19.7017 16.25L13.9191 6.48096C13.7261 6.15406 13.4504 5.88298 13.1195 5.69463C12.7886 5.50627 12.4139 5.40718 12.0325 5.40718C11.6512 5.40718 11.2764 5.50627 10.9455 5.69463C10.6146 5.88298 10.3389 6.15406 10.146 6.48096L0.152717 23.3559C0.0527719 23.5223 0 23.7124 0 23.9062C0 24.0999 0.0527719 24.2901 0.152717 24.4565C0.246193 24.623 0.383162 24.7614 0.549179 24.8571C0.715196 24.9527 0.904108 25.0021 1.09599 24.9999H33.9055C34.0989 25.0003 34.289 24.9503 34.4569 24.8549C34.6248 24.7596 34.7646 24.6222 34.8625 24.4565C34.955 24.2871 35.0023 24.0971 34.9999 23.9044C34.9975 23.7118 34.9455 23.5229 34.8488 23.3559ZM12.0325 7.5815L15.2724 13.0434H8.79257L12.0325 7.5815ZM3.00988 22.826L7.50752 15.2174H16.5575L18.7585 18.9402L21.0551 22.826H3.00988ZM23.5979 22.826L20.9731 18.3967L25.1563 11.3723L31.9916 22.826H23.5979Z" fill="black"/>
</svg>
