<svg width="24" height="24" viewBox="0 0 24 24" fill="none" xmlns="http://www.w3.org/2000/svg">
<path d="M8.5 18.975V5.66734C8.49994 5.14974 8.68518 4.64921 9.0222 4.25635C9.35922 3.86349 9.82574 3.60427 10.3373 3.52559L20.0873 2.02518C20.3961 1.97769 20.7115 1.99754 21.0119 2.08336C21.3122 2.16917 21.5905 2.31893 21.8276 2.52237C22.0647 2.7258 22.255 2.9781 22.3854 3.26196C22.5159 3.54582 22.5834 3.85453 22.5833 4.16693V16.8083" stroke="black" stroke-width="2.16667" stroke-linecap="round" stroke-linejoin="round"/>
<path d="M8.5 9.22502L22.5833 7.05835" stroke="black" stroke-width="2.16667"/>
<path d="M8.5 18.975C8.5 19.8369 8.15759 20.6636 7.5481 21.2731C6.9386 21.8826 6.11195 22.225 5.25 22.225C4.38805 22.225 3.5614 21.8826 2.9519 21.2731C2.34241 20.6636 2 19.8369 2 18.975C2 17.1799 3.45492 16.8083 5.25 16.8083C7.04508 16.8083 8.5 17.1799 8.5 18.975ZM22.5833 16.8083C22.5833 17.6703 22.2409 18.4969 21.6314 19.1064C21.0219 19.7159 20.1953 20.0583 19.3333 20.0583C18.4714 20.0583 17.6447 19.7159 17.0352 19.1064C16.4257 18.4969 16.0833 17.6703 16.0833 16.8083C16.0833 15.0132 17.5383 14.6417 19.3333 14.6417C21.1284 14.6417 22.5833 15.0132 22.5833 16.8083Z" stroke="black" stroke-width="2.16667" stroke-linecap="round" stroke-linejoin="round"/>
</svg>
